<?xml version="1.0" standalone="no"?>
<!DOCTYPE svg PUBLIC "-//W3C//DTD SVG 20010904//EN"
 "http://www.w3.org/TR/2001/REC-SVG-20010904/DTD/svg10.dtd">
<svg version="1.0" xmlns="http://www.w3.org/2000/svg"
 width="300.000000pt" height="259.000000pt" viewBox="0 0 300.000000 259.000000"
 preserveAspectRatio="xMidYMid meet">
<metadata>
Created by potrace 1.10, written by Peter Selinger 2001-2011
</metadata>
<g transform="translate(300.000000,259.000000) scale(-0.100000,-0.100000)"
fill="#000000" stroke="none">
<path d="M841 2423 c-332 -4 -326 3 -194 -229 53 -92 87 -140 105 -150 22 -12
132 -14 635 -14 648 0 667 -1 762 -50 102 -52 196 -165 231 -277 22 -73 27
-234 9 -313 -35 -155 -152 -291 -291 -340 -70 -24 -292 -39 -325 -21 -12 6
-54 68 -94 138 -39 71 -84 148 -99 173 -16 25 -36 61 -47 80 -59 113 -282 487
-305 511 -17 20 -36 29 -56 29 -51 0 -44 10 -445 -685 -60 -104 -140 -242
-177 -305 -107 -182 -150 -265 -150 -288 0 -11 10 -28 22 -36 20 -14 89 -16
555 -16 356 0 540 -4 555 -11 20 -9 166 -247 176 -286 2 -7 8 -13 13 -13 5 0
9 -5 9 -11 0 -20 101 -179 120 -189 10 -6 94 -10 188 -10 154 0 171 2 192 20
16 14 21 26 17 42 -5 19 -132 247 -233 416 -23 40 -16 47 64 55 140 15 310
100 435 217 74 69 155 176 186 245 86 192 111 353 85 553 -27 208 -109 380
-249 518 -58 57 -145 124 -160 124 -4 0 -19 8 -33 19 -15 10 -76 36 -137 57
l-110 38 -330 7 c-324 7 -431 7 -924 2z m1304 -66 c33 -9 106 -39 161 -67 223
-109 381 -322 430 -578 18 -95 18 -279 0 -375 -70 -364 -368 -633 -737 -664
-38 -3 -69 -9 -69 -13 0 -7 110 -199 231 -404 33 -54 59 -103 59 -109 0 -5
-10 -7 -22 -3 -13 3 -93 6 -179 6 l-156 0 -138 242 c-76 132 -146 249 -157
260 -17 17 -43 18 -578 16 -308 -2 -560 1 -560 5 0 9 -19 -25 385 677 169 294
318 546 330 559 18 18 26 21 41 13 16 -9 172 -273 460 -779 97 -170 92 -166
203 -164 234 4 345 42 446 154 62 68 117 173 134 255 16 76 14 238 -4 305 -44
171 -177 306 -355 363 -50 15 -116 17 -683 18 l-627 2 -85 149 c-47 82 -85
152 -85 155 0 3 336 3 747 0 668 -5 754 -7 808 -23z"/>
<path d="M1075 1180 c-54 -94 -101 -173 -106 -176 -31 -19 11 -24 201 -24 116
0 210 3 210 8 0 4 -7 17 -15 29 -9 12 -55 92 -104 178 l-89 155 -97 -170z
m167 -31 c32 -52 57 -102 58 -111 0 -16 -12 -18 -124 -18 -69 0 -127 4 -131
10 -8 13 115 222 129 217 6 -2 37 -46 68 -98z"/>
</g>
</svg>
